<svg
	class="nav_std_icon"
	width="20" height="20"
	fill="none"
	viewBox="0 0 20 20"
	xmlns="http://www.w3.org/2000/svg">
	<path xmlns="http://www.w3.org/2000/svg" d="M13.1413 10.4214L10.7356 11.6217C10.0128 11.9829 9.42826 12.5672 9.06687 13.2895L7.86581 15.6938C7.69575 16.0373 7.20328 16.0373 7.03322 15.6938L5.83215 13.2895C5.47077 12.5672 4.88618 11.9829 4.16342 11.6217L1.75775 10.4214C1.41408 10.2514 1.41408 9.75922 1.75775 9.58925L4.16342 8.38888C4.88618 8.0277 5.47077 7.44345 5.83215 6.7211L7.03322 4.31681C7.20328 3.97334 7.69575 3.97334 7.86581 4.31681L9.06687 6.7211C9.42826 7.44345 10.0128 8.0277 10.7356 8.38888L13.1413 9.58925C13.4849 9.75922 13.4849 10.2514 13.1413 10.4214ZM18.3884 15.7682L17.3574 15.2512C17.0456 15.0989 16.7976 14.844 16.6417 14.5359L16.1244 13.5055C16.0536 13.3568 15.841 13.3568 15.7666 13.5055L15.2493 14.5359C15.097 14.8475 14.8419 15.0954 14.5337 15.2512L13.5027 15.7682C13.3539 15.839 13.3539 16.0514 13.5027 16.1258L14.5337 16.6428C14.8454 16.795 15.0934 17.05 15.2493 17.3581L15.7666 18.3885C15.8375 18.5372 16.05 18.5372 16.1244 18.3885L16.6417 17.3581C16.7941 17.0464 17.0492 16.7986 17.3574 16.6428L18.3884 16.1258C18.5372 16.055 18.5372 15.8425 18.3884 15.7682ZM18.3884 3.87419L17.3574 3.35722C17.0456 3.20496 16.7976 2.95001 16.6417 2.64195L16.1244 1.61154C16.0536 1.46282 15.841 1.46282 15.7666 1.61154L15.2493 2.64195C15.097 2.95355 14.8419 3.20142 14.5337 3.35722L13.5027 3.87419C13.3539 3.94501 13.3539 4.15747 13.5027 4.23183L14.5337 4.7488C14.8454 4.90106 15.0934 5.15601 15.2493 5.46407L15.7666 6.49448C15.8375 6.6432 16.05 6.6432 16.1244 6.49448L16.6417 5.46407C16.7941 5.15247 17.0492 4.9046 17.3574 4.7488L18.3884 4.23183C18.5372 4.16101 18.5372 3.94855 18.3884 3.87419Z" fill="#4a154b"/>
</svg>